/* XPM */
static char * debug_east4_xpm[] = {
"50 50 149 2",
"  	c None",
". 	c #3E6D7A",
"+ 	c #3D6D7A",
"@ 	c #3D6C7A",
"# 	c #3C6B7A",
"$ 	c #3C6C7A",
"% 	c #3B6A7A",
"& 	c #3C6A7A",
"* 	c #3B697A",
"= 	c #3A697A",
"- 	c #3B6979",
"; 	c #3A6A7A",
"> 	c #3A6979",
", 	c #3A6879",
"' 	c #3A687A",
") 	c #39687A",
"! 	c #396879",
"~ 	c #39677A",
"{ 	c #396779",
"] 	c #3A677A",
"^ 	c #396679",
"/ 	c #39667A",
"( 	c #38667A",
"_ 	c #386679",
": 	c #396579",
"< 	c #386579",
"[ 	c #386479",
"} 	c #38657A",
"| 	c #38647A",
"1 	c #376479",
"2 	c #376579",
"3 	c #36637A",
"4 	c #376379",
"5 	c #366379",
"6 	c #37637A",
"7 	c #356279",
"8 	c #366279",
"9 	c #356179",
"0 	c #356079",
"a 	c #346079",
"b 	c #345F79",
"c 	c #335E79",
"d 	c #345E79",
"e 	c #335F79",
"f 	c #325D79",
"g 	c #325C79",
"h 	c #315B79",
"i 	c #315C79",
"j 	c #315B78",
"k 	c #305A78",
"l 	c #305A79",
"m 	c #305979",
"n 	c #2F5878",
"o 	c #305878",
"p 	c #2F5879",
"q 	c #305879",
"r 	c #2E5878",
"s 	c #2E5779",
"t 	c #2E5879",
"u 	c #2E5678",
"v 	c #2E5778",
"w 	c #2E5679",
"x 	c #2D5678",
"y 	c #2D5679",
"z 	c #2D5579",
"A 	c #2D5578",
"B 	c #2D5478",
"C 	c #2D5479",
"D 	c #2C5478",
"E 	c #2C5578",
"F 	c #2C5378",
"G 	c #2B5278",
"H 	c #2B5178",
"I 	c #295178",
"J 	c #2A5178",
"K 	c #2A5078",
"L 	c #295078",
"M 	c #294F78",
"N 	c #284F78",
"O 	c #284E78",
"P 	c #294E78",
"Q 	c #284D78",
"R 	c #274D78",
"S 	c #274B77",
"T 	c #274C78",
"U 	c #274B78",
"V 	c #274C77",
"W 	c #264B78",
"X 	c #264B77",
"Y 	c #254A78",
"Z 	c #254A77",
"` 	c #264A78",
" .	c #254978",
"..	c #244978",
"+.	c #244977",
"@.	c #254977",
"#.	c #254877",
"$.	c #244877",
"%.	c #244878",
"&.	c #244777",
"*.	c #244778",
"=.	c #234777",
"-.	c #234778",
";.	c #234677",
">.	c #234678",
",.	c #244677",
"'.	c #224677",
").	c #224577",
"!.	c #234577",
"~.	c #224576",
"{.	c #234576",
"].	c #214477",
"^.	c #214377",
"/.	c #214376",
"(.	c #204276",
"_.	c #204277",
":.	c #204176",
"<.	c #1F4176",
"[.	c #1F4177",
"}.	c #1F4076",
"|.	c #1F4077",
"1.	c #1F3F76",
"2.	c #1F3F77",
"3.	c #1E3F76",
"4.	c #1D3E77",
"5.	c #1E3E76",
"6.	c #1D3E76",
"7.	c #1E3E77",
"8.	c #1D3F76",
"9.	c #1D3D76",
"0.	c #1C3D76",
"a.	c #1C3C76",
"b.	c #1B3C76",
"c.	c #1C3B76",
"d.	c #1B3B76",
"e.	c #1B3A76",
"f.	c #1A3A76",
"g.	c #1A3976",
"h.	c #1B3976",
"i.	c #1A3876",
"j.	c #193876",
"k.	c #193776",
"l.	c #183776",
"m.	c #183676",
"n.	c #193676",
"o.	c #183775",
"p.	c #183675",
"q.	c #193775",
"r.	c #193675",
". + . . . . + + + . . + + . + . + . + + . . + . . . + . . + . . . + + . + + . + + . . + + . . + + . ",
"+ + + . + . + + + . + . . . + . . + + + + + . . + . + . . . + + . + + + . . + + . + + . . + . + + . ",
"+ . . + + + . + + + + + + + . + + . . + + + . + + . . + . + . + . + . . + . . . . + . + + . . + . + ",
". + . . + + + + + + . + + . + + . . + + . . . + + . . + + + + + . + . . + + + + + . + + . . + + + . ",
". . + + + + + . . . . . + + + . + . . . + + + + . + . + . . . . + + . . . . + + + + + + . + . . + + ",
"+ . + + + . . . . + + + + . + . . . . . + . . + . + . + + + + + + + + . . + + . . . + + + + + . . + ",
"+ + + + + + @ + @ + + + @ @ + + + @ + @ @ + + + + + @ @ @ @ + + @ @ + @ + + @ @ @ @ @ @ @ @ @ @ @ @ ",
"# $ # $ # # # # # # # # # # # # # # # # # # # # # # # # # # # # # # # # # # # # # # # # # # # # # # ",
"% % & * = * % * * = * * * * * * * * = * = * = * = = * - * = = * * - = * ; * * * = = = - * = * * > = ",
", ' ' , ' ' ' ' , ' ' ) ' ' ' ' ! ' ' , ' , ' ' ) ' ' ' ' , ' , , ' ' , ' , ) ~ { ) ! ~ , ! ' ' , ] ",
"~ ~ { { ^ / / ^ ~ ^ ^ { { / { / { ~ ^ ^ ^ { / / ^ ^ ~ ^ ~ ~ ^ / ~ { ~ ~ ( ^ _ _ ( ^ ( / ( / : ( ^ ^ ",
"< < < < [ } [ < < < < [ < } < } } < < } | } < < < < | < [ < < < [ < < | [ 1 1 [ [ [ 1 [ [ | | < | 2 ",
"3 4 5 3 4 4 5 5 4 5 5 5 5 5 5 5 4 5 5 5 5 5 4 5 5 4 6 5 5 4 5 5 5 5 5 5 5 5 5 5 5 5 5 5 5 5 5 5 5 5 ",
"7 7 7 8 7 7 8 8 7 8 7 7 8 7 7 8 7 7 7 8 7 8 7 7 7 8 8 7 7 7 7 8 7 9 7 9 9 7 7 7 7 9 7 7 7 9 7 9 7 7 ",
"0 a a 0 0 a 0 0 0 a 0 a 0 0 0 0 0 a 0 0 0 0 a a a a a a 0 a 0 a b a b a a a a a a a 0 a a a a a a a ",
"c b c d e d b d b e d d c d b d e d c c b b b c c d b b d b c c c c c c c c c c c c c c c c d c c d ",
"f f f g f f f f f f f f f g f f g f f f f f f f f f f f f f g g g g f g g g g g g g g g g g f g g g ",
"h h h i h h h h h h i h h h h h h h h h h i h j h h h h h h h h h h h h h h h h h h h h h h h h h h ",
"k l k l k l l l k l l l l l k l l l l l k l l l l l l l m l l l k l l k m m m k l l l l l m m k m m ",
"n o o n p n n p n n n n p p p q p n p p n p n p n p p p r p p p n p n s t p r n p r n r r p p p n t ",
"s u s v w v u s v v v v s v v s u v v v v v u v s v u x u u u y u x u w x x x v x u w w x u u s u v ",
"z z z A A A z A A x A z A x A A A A A A A A A A A B B B B A C B B D B A B B A B C B B A B A B A E B ",
"D D F F F F D F D D F F F D F F F F D D D D F F F F F F F F F F F F F F F F F F F F F F F F F F F F ",
"G G G G G G G G G G G G G G G G G G G G G G G G G H H G G G G G G G H G G G H G G G H G H G G H G G ",
"I J I J J J K I K J K J K J J K J J J J J J I K L K L L L K L L K L L L L L L L K K I L L J L L L L ",
"M M N M N M M M M N M M N M M M M M M M M O M O O P N O O N O O O O P N O O M P O O P O P O O N O P ",
"Q Q Q Q Q O Q Q Q Q Q Q Q Q Q Q Q Q O Q Q R Q R R Q Q R Q Q R R R R Q R Q R Q Q Q R Q Q Q Q Q Q Q R ",
"S T T U V U U S U V U U T U T S U U U S U S U U U U U W U U S U U W U U U U U U U U U U U U X X U S ",
"Y Z Y Z Y ` Z Y Y Y Y ` ` Y Y ` Y Y Y Y Z Y Z Z Z Y Y Y Y Z Y Z Y Z Y Y Y  .Y Y Z Y Z Y Y Y Z  .Y Z ",
"....+.+...@.+.+...+.+.+.+. .@.#.@.$.$.%.$.%.$...%.$.$.$.%.%.$.$.+.%.%.%.$.+.+.+.$.$.%.+.%.$.+.%.%...",
"&.&.*.=.=.&.=.=.&.*.&.&.=.&.=.-.;.;.;.-.=.=.=.=.;.;.=.;.>.=.=.=.=.=.;.;.;.=.,.;.;.;.;.;.;.=.;.=.;.=.",
"'.).!.!.;.).;.).!.!.;.'.!.;.).!.).).).).!.).).).).).).).).).~.).).).).!.).).{.).).!.).).).).!.).!.).",
"].].^./.^.].].^.].]./.^.].^.^.^./.^.^./.^./.^.^.^.^./.^.^././.^.^./.^.^././.^.^.^.^.^.^./.^.^.^.^./.",
"(._.(.(._._.(.(._._._.(.(._.(.(.(.(._._.(._._.(.(.(._.(._._.(.(._.(._._.(.(.(.(._._.(.(._.(.(._.(.:.",
"<.<.<.[.<.[.[.<.[.[.[.<.[.}.[.}.}.|.[.}.}.<.}.}.}.}.<.<.}.[.|.}.}.}.}.|.[.}.|.|.[.|.}.[.}.}.}.1.|.2.",
"3.3.3.3.3.3.3.3.3.3.3.4.5.3.3.5.3.5.6.3.5.3.3.5.7.5.3.5.5.6.3.8.6.5.5.5.5.6.5.6.7.3.6.3.8.3.5.5.5.6.",
"9.6.6.6.9.9.6.9.9.9.0.9.0.0.0.9.9.9.9.9.0.9.9.9.0.9.9.9.9.9.9.0.9.9.9.0.0.0.9.9.0.0.9.9.9.0.0.0.9.0.",
"a.a.a.a.a.a.a.a.a.a.a.a.a.a.b.a.a.b.a.a.a.b.b.a.a.a.a.a.a.a.a.a.a.a.a.a.a.b.b.a.a.a.a.a.b.c.c.d.d.c.",
"e.e.e.e.e.e.e.e.e.e.e.e.e.e.e.e.e.e.e.e.e.e.e.e.e.e.e.e.e.e.e.e.e.e.e.e.e.e.e.e.e.e.e.f.g.g.h.e.f.e.",
"g.g.g.g.g.g.g.i.g.g.g.g.g.g.i.g.i.g.i.g.i.i.g.g.i.i.i.g.i.i.g.g.i.i.g.i.g.i.g.g.i.g.i.i.j.i.i.i.i.i.",
"j.k.j.l.j.k.l.l.m.m.n.l.m.l.l.l.l.k.l.o.o.m.l.m.p.l.m.m.l.l.m.l.l.m.l.k.l.l.n.l.l.m.o.m.k.n.l.l.m.l.",
"k.k.k.l.l.l.l.k.n.l.l.q.m.m.l.l.l.m.l.m.k.k.l.k.l.l.l.k.m.l.m.l.l.k.l.l.m.n.l.l.l.l.m.m.l.p.l.k.n.l.",
"m.l.l.l.l.k.l.k.l.k.m.k.l.k.k.k.l.l.m.l.l.l.l.l.m.l.l.m.m.m.l.l.l.l.m.l.l.n.l.l.k.l.m.l.m.l.l.l.l.k.",
"m.m.r.l.l.l.l.k.m.l.l.m.l.l.n.k.l.k.l.m.k.l.m.l.k.m.l.l.k.l.n.l.l.l.l.l.k.m.m.m.l.m.p.l.l.l.l.k.l.k.",
"l.m.n.l.m.l.o.l.l.l.l.l.l.l.k.m.m.k.l.k.n.l.l.l.m.m.k.l.l.l.l.l.m.n.k.l.l.p.n.l.l.k.k.k.l.l.l.l.m.m.",
"m.l.k.n.l.l.k.k.m.n.l.k.k.o.m.l.o.q.l.m.l.l.l.n.l.l.l.l.l.l.l.m.l.l.l.k.l.l.l.l.l.m.k.m.l.l.l.k.l.k.",
"l.l.l.m.l.m.l.k.l.m.l.l.l.l.o.p.l.m.m.l.m.l.n.l.l.n.k.k.l.n.m.k.k.m.l.k.l.l.l.m.k.k.l.m.k.l.l.l.l.l.",
"l.l.n.m.n.l.m.l.m.k.l.l.k.m.k.l.k.m.m.k.l.l.k.l.m.l.l.m.l.k.k.m.l.k.k.l.q.l.k.m.l.k.n.l.l.k.l.k.o.l.",
"l.m.l.m.l.l.l.k.l.n.k.l.n.l.l.l.l.m.n.q.k.m.l.l.l.l.l.l.l.m.k.k.l.l.l.l.l.k.l.l.l.l.l.l.l.l.l.m.l.l.",
"l.l.l.m.k.k.k.l.l.m.n.k.l.l.l.l.l.n.l.l.l.m.m.l.m.l.m.l.l.l.m.o.m.l.l.l.l.l.l.l.k.l.k.l.o.l.l.l.k.l."};
