/* XPM */
static char * wall4_north_xpm[] = {
"50 50 318 2",
"  	c #6DC1D7",
". 	c #6CC1D8",
"+ 	c #6DC1D8",
"@ 	c #6CC1D7",
"# 	c #6DC0D7",
"$ 	c #6CC0D8",
"% 	c #6CC0D7",
"& 	c #6DC0D8",
"* 	c #6CBFD7",
"= 	c #6BC0D7",
"- 	c #6BBFD7",
"; 	c #6BBFD8",
"> 	c #6CBFD8",
", 	c #6BC0D8",
"' 	c #6BBED8",
") 	c #6BBED7",
"! 	c #6ABDD7",
"~ 	c #6ABED7",
"{ 	c #69BDD7",
"] 	c #69BCD7",
"^ 	c #6ABDD8",
"/ 	c #6ABCD7",
"( 	c #69BCD8",
"_ 	c #68BBD7",
": 	c #69BBD7",
"< 	c #68BAD7",
"[ 	c #67BAD7",
"} 	c #68BAD6",
"| 	c #67BBD7",
"1 	c #67B9D7",
"2 	c #68B9D6",
"3 	c #68B9D7",
"4 	c #67BAD6",
"5 	c #66B8D6",
"6 	c #66B8D7",
"7 	c #66B7D6",
"8 	c #66B7D7",
"9 	c #65B7D7",
"0 	c #65B7D6",
"a 	c #65B6D7",
"b 	c #65B6D6",
"c 	c #66B6D7",
"d 	c #65B5D7",
"e 	c #64B5D7",
"f 	c #64B5D6",
"g 	c #64B4D6",
"h 	c #64B4D7",
"i 	c #63B4D7",
"j 	c #63B4D6",
"k 	c #64B3D6",
"l 	c #62B2D6",
"m 	c #62B1D6",
"n 	c #62B2D7",
"o 	c #63B2D6",
"p 	c #63B2D7",
"q 	c #62B1D7",
"r 	c #63B1D7",
"s 	c #61B1D6",
"t 	c #61B2D6",
"u 	c #60AFD7",
"v 	c #61AFD6",
"w 	c #60AFD6",
"x 	c #61AFD7",
"y 	c #60AED6",
"z 	c #5EACD6",
"A 	c #5FACD6",
"B 	c #5EADD6",
"C 	c #5FADD6",
"D 	c #5EADD5",
"E 	c #5FACD5",
"F 	c #5EABD6",
"G 	c #5DACD6",
"H 	c #5EACD5",
"I 	c #5EABD5",
"J 	c #5DABD6",
"K 	c #5DA9D5",
"L 	c #5CAAD6",
"M 	c #5CAAD5",
"N 	c #5DAAD5",
"O 	c #5CA9D6",
"P 	c #5DAAD6",
"Q 	c #5DA9D6",
"R 	c #5CA9D5",
"S 	c #5CA8D6",
"T 	c #5CA8D5",
"U 	c #5AA6D5",
"V 	c #5BA7D5",
"W 	c #5AA6D6",
"X 	c #5BA6D6",
"Y 	c #5AA7D6",
"Z 	c #5BA6D5",
"` 	c #5BA7D6",
" .	c #5AA7D5",
"..	c #58A4D5",
"+.	c #59A4D5",
"@.	c #59A3D5",
"#.	c #59A4D6",
"$.	c #59A3D6",
"%.	c #58A3D5",
"&.	c #58A3D6",
"*.	c #57A1D5",
"=.	c #56A2D5",
"-.	c #56A1D5",
";.	c #57A2D5",
">.	c #57A1D4",
",.	c #56A0D5",
"'.	c #57A0D5",
").	c #559FD4",
"!.	c #559ED5",
"~.	c #559ED4",
"{.	c #559FD5",
"].	c #559DD5",
"^.	c #549ED5",
"/.	c #549ED4",
"(.	c #549DD5",
"_.	c #539BD4",
":.	c #549BD4",
"<.	c #539CD4",
"[.	c #539CD5",
"}.	c #539BD5",
"|.	c #549CD5",
"1.	c #529BD4",
"2.	c #529AD5",
"3.	c #529BD5",
"4.	c #5199D5",
"5.	c #5198D4",
"6.	c #5199D4",
"7.	c #5298D5",
"8.	c #5298D4",
"9.	c #5299D5",
"0.	c #5299D4",
"a.	c #5098D4",
"b.	c #5098D5",
"c.	c #5198D5",
"d.	c #5096D5",
"e.	c #4F96D4",
"f.	c #5096D4",
"g.	c #4F96D5",
"h.	c #4F97D4",
"i.	c #4F95D4",
"j.	c #4F95D5",
"k.	c #4E95D4",
"l.	c #4E96D4",
"m.	c #4D94D4",
"n.	c #4E94D4",
"o.	c #4E93D4",
"p.	c #4D93D3",
"q.	c #4E93D3",
"r.	c #4E94D3",
"s.	c #4D93D4",
"t.	c #4D92D4",
"u.	c #4D92D3",
"v.	c #4C91D4",
"w.	c #4B91D4",
"x.	c #4B91D3",
"y.	c #4C90D4",
"z.	c #4C91D3",
"A.	c #4B90D3",
"B.	c #4B90D4",
"C.	c #4B8FD4",
"D.	c #4B8FD3",
"E.	c #4C90D3",
"F.	c #498ED3",
"G.	c #4A8ED3",
"H.	c #4A8ED4",
"I.	c #4A8DD3",
"J.	c #498ED4",
"K.	c #4A8DD4",
"L.	c #498DD4",
"M.	c #498DD3",
"N.	c #488BD3",
"O.	c #478BD4",
"P.	c #478BD3",
"Q.	c #478AD3",
"R.	c #488AD3",
"S.	c #478AD4",
"T.	c #488AD4",
"U.	c #4688D3",
"V.	c #4689D3",
"W.	c #4688D4",
"X.	c #4587D3",
"Y.	c #4588D3",
"Z.	c #4687D3",
"`.	c #4485D2",
" +	c #4486D3",
".+	c #4485D3",
"++	c #4586D2",
"@+	c #4486D2",
"#+	c #4585D3",
"$+	c #4484D3",
"%+	c #4385D3",
"&+	c #4484D2",
"*+	c #4384D3",
"=+	c #4384D2",
"-+	c #4282D3",
";+	c #4283D2",
">+	c #4283D3",
",+	c #4383D3",
"'+	c #4382D3",
")+	c #4282D2",
"!+	c #4182D3",
"~+	c #4181D3",
"{+	c #4281D3",
"]+	c #4080D3",
"^+	c #4080D2",
"/+	c #4180D2",
"(+	c #4180D3",
"_+	c #417FD2",
":+	c #407FD2",
"<+	c #3F7FD2",
"[+	c #407FD3",
"}+	c #3F7FD3",
"|+	c #3F7DD2",
"1+	c #3F7ED2",
"2+	c #3F7DD3",
"3+	c #3E7DD2",
"4+	c #3E7ED2",
"5+	c #3E7DD3",
"6+	c #3E7CD2",
"7+	c #3E7CD3",
"8+	c #3F7CD2",
"9+	c #3C7BD2",
"0+	c #3C7AD2",
"a+	c #3D7AD2",
"b+	c #3D7BD2",
"c+	c #3D79D2",
"d+	c #3C79D2",
"e+	c #3C7AD1",
"f+	c #3D7AD1",
"g+	c #3B78D2",
"h+	c #3A78D2",
"i+	c #3B77D2",
"j+	c #3A77D1",
"k+	c #3A77D2",
"l+	c #3B77D1",
"m+	c #3A76D2",
"n+	c #3B76D2",
"o+	c #3A76D1",
"p+	c #3975D1",
"q+	c #3974D2",
"r+	c #3875D1",
"s+	c #3975D2",
"t+	c #3974D1",
"u+	c #3875D2",
"v+	c #3874D2",
"w+	c #3874D1",
"x+	c #3873D1",
"y+	c #3772D1",
"z+	c #3773D1",
"A+	c #3772D2",
"B+	c #3672D2",
"C+	c #3773D2",
"D+	c #3771D1",
"E+	c #3671D1",
"F+	c #3771D2",
"G+	c #3672D1",
"H+	c #3671D2",
"I+	c #3670D1",
"J+	c #3670D2",
"K+	c #3570D1",
"L+	c #356FD1",
"M+	c #346ED2",
"N+	c #356ED1",
"O+	c #346ED1",
"P+	c #356ED2",
"Q+	c #346FD1",
"R+	c #346CD1",
"S+	c #336DD1",
"T+	c #336DD0",
"U+	c #336CD1",
"V+	c #346DD1",
"W+	c #336CD0",
"X+	c #326CD0",
"Y+	c #326CD1",
"Z+	c #336BD1",
"`+	c #326BD1",
" @	c #326BD0",
".@	c #3169D1",
"+@	c #316AD1",
"@@	c #316AD0",
"#@	c #326AD1",
"$@	c #326AD0",
"%@	c #3169D0",
"&@	c #3069D1",
"*@	c #3069D0",
"=@	c #3168D0",
"-@	c #3068D0",
";@	c #3068D1",
">@	c #3168D1",
",@	c #2F67D1",
"'@	c #3067D0",
")@	c #3067D1",
"!@	c #2F67D0",
"~@	c #2F66D0",
"{@	c #3066D1",
"]@	c #2F66D1",
"^@	c #2E66D0",
"/@	c #2E65D0",
"(@	c #2F65D0",
"_@	c #2D64D0",
":@	c #2E64D0",
"<@	c #2D65D0",
"[@	c #2E65D1",
"}@	c #2D63D0",
"|@	c #2E63D0",
"1@	c #2D63D1",
"2@	c #2D64D1",
"3@	c #2C63D0",
"4@	c #2D62D1",
"5@	c #2C62D0",
"6@	c #2C61D0",
"7@	c #2B61D0",
"8@	c #2B60D0",
"9@	c #2C60D0",
"0@	c #2B61CF",
"a@	c #2B60CF",
"b@	c #2C61CF",
"c@	c #2C60CF",
"  .     + + . @ @ + # @ . + .   $   @ . + + @ + + + @ + + .   + + @ @ + @ @ + . .   + @ @   + . @ + ",
". @ @ + . + @ . . + @   +   @ +   . @ . @ %     . + @ + +   . .   . . .   + @ . + . . + + @ + @ @   ",
". +   @ . @ + . . % . . . @ + @ .     . . @ + @ .     . + %   @   @     @   + +   . + . @     @   @ ",
"+ .     . $ . @ . @ + % @   . . + + % $   +   . . +   @ . @ . .   @     @ . @ % . + . .   + @ @ @   ",
"    @ @ @ @ .   + + &   @ . .   @   + + @ . @ @ + .   @   + +   @ @   +   + . @ @ @ @ .   @   + @ $ ",
". + @ @ @   +     @ @ @ @ + . + + + +   @     . + @   @ . . . @ . . @ & + . @   +   . . . @ @ &   . ",
"$ @ % % % $ * = * % % = - ; = $ % > % * - , % % $ = ; ; > ; = % > - $ - $ % * * - ; - - ' - - ) ; - ",
"! ~ ! ~ ! ! ! { ] ^ ! { { ! ^ ] { { ! ! ! ! ! { ! ! ! ! ! { ! ! ! { ! ! ! ^ ! ] / ! ] { ] ( / / ( ] ",
"_ _ : < [ < _ < < [ < < < < < < < < [ < [ < [ < [ [ < } < [ [ < < } [ < | < < < [ 1 1 2 < 1 3 < 4 1 ",
"5 6 6 7 8 8 6 6 7 8 8 9 8 8 8 6 0 8 8 7 8 7 6 6 9 6 8 8 6 7 8 7 7 6 6 7 8 7 9 a b 9 0 a 7 0 8 8 7 c ",
"d e f f g h h g e g g f f h f h f e g g g f h h g g e g e e g h e f e e i g j j i g i h i h k i g g ",
"l l l l m n m l l l l m l n o p n l l p q p l l l l r l m l l o m l l q m s s m m m s m m q q l q t ",
"u v w u v v w w v w w w w w w w v w w w w w v w w v x w w v w w w w y y y y y y w y y w y y y y y y ",
"z z z A z B A C z A B B A z z A D B D A z E B B z A C B B B z A B F G F F H z H G I z z z J z F z z ",
"K L M N K O P Q K O K O K P Q Q N O Q P K Q L L O O O O N R Q O S O T R O O R O O R Q R R O O R R O ",
"U V W X Y Z ` X ` Y Z Z U Z ` Z  .X U U ` ` V U U X ` V X V U U U U W U W W U U W U U U U W X U W Z ",
"..+.+.@.#.+.#...+.+.+.+.+.$.+...$.+.+.+.+...+.+.+.+.+.+.#...%.%.%.%...$.%.%.%.%.%.@.%.%.%.$.+.%.&.%.",
"*.*.*.=.*.-.*.*.*.*.;.*.*.*.*.*.*.*.*.*.-.;.*.>.*.*.*.*.*.,.'.*.,.,.'.,.*.'.'.*.-.*.,.-.'.'.*.*.,.,.",
").!.~.{.~.!.{.{.~.!.{.{.{.!.~.!.{.!.!.!.).!.!.!.!.{.!.!.].^.!.!.~.^.^./.].].(./.^.!.!.!.!.].(./.(.].",
"_.:.:.<.[.<._.[.<.<._._.[.[.}.|.[.<.[.}.<.}.<.[.<.}.}.}.1.}.}.}._.}._.2.3.}.1._.}.1._.1.1.}.}.}._.3.",
"4.5.4.6.7.6.8.4.6.6.6.6.9.6.6.9.5.6.6.6.6.6.5.6.4.0.5.a.5.5.5.b.5.a.5.c.a.a.a.6.a.5.c.c.a.5.5.4.5.6.",
"d.d.d.e.f.e.g.f.f.h.f.g.e.h.e.f.f.e.f.f.e.e.f.f.e.i.i.i.i.e.j.i.i.k.i.e.i.i.e.i.j.i.i.e.i.e.i.e.l.i.",
"m.n.o.o.o.p.m.q.r.m.p.s.o.n.s.o.o.s.n.m.m.m.s.o.s.o.s.s.s.t.s.s.t.s.s.p.t.o.s.s.u.u.t.p.s.t.t.s.t.t.",
"v.v.v.v.w.v.w.x.y.z.z.w.y.w.v.y.v.w.y.x.v.A.v.A.B.C.D.B.y.B.B.A.A.y.C.A.B.E.D.B.B.A.C.y.D.B.B.C.B.y.",
"F.G.F.H.G.G.I.J.K.H.I.G.K.G.H.K.H.H.H.H.G.G.J.K.L.K.M.L.M.I.L.M.K.M.M.M.M.M.L.L.I.K.J.L.M.H.M.L.M.L.",
"N.N.O.N.O.N.N.N.N.O.N.N.P.N.N.N.N.N.N.N.N.Q.N.Q.Q.R.P.Q.Q.P.Q.S.Q.Q.T.P.Q.S.N.R.Q.S.R.Q.R.Q.Q.O.S.T.",
"U.U.U.U.U.V.U.U.U.U.U.U.U.U.W.U.U.W.V.U.U.X.U.Y.Y.U.U.Y.Z.Z.X.Y.X.Y.U.Y.Z.X.Z.Z.Z.X.U.Z.Z.U.U.U.U.X.",
"`. + +.+++.+.+`..+@+.+#+ +.+ +`..+#+#+`.$+`.$+.+$+$+.+%+.+.+&+.+.+*+$+.+$+.+.+.+.+.+$+.+$+.+=+=+.+`.",
"-+;+>+;+>+,+;+>+-+>+-+'+,+>+-+,+>+>+-+-+)+!+)+)+)+-+-+-+!+)+-+)+-+)+-+-+-+~+!+-+)+!+)+!+-+-+)+{+!+)+",
"]+]+^+^+]+/+^+^+]+^+^+^+^+(+/+_+/+:+<+[+:+[+:+]+[+:+:+:+[+}+:+:+^+[+[+}+:+^+^+^+:+:+[+^+[+:+^+[+[+]+",
"|+1+2+3+3+|+4+3+|+2+|+|+3+|+3+5+6+6+6+5+3+3+3+3+6+6+3+6+7+3+3+3+3+3+6+6+6+3+8+6+6+6+6+6+6+3+6+3+6+3+",
"9+0+a+a+b+0+b+0+a+a+b+9+a+b+0+c+0+0+d+d+a+d+d+0+0+0+d+0+d+0+e+d+0+0+0+a+d+0+f+0+d+a+0+0+0+d+a+0+c+d+",
"g+h+i+j+i+g+h+k+h+g+l+i+g+i+i+i+j+k+k+j+i+j+i+k+m+k+j+k+m+j+j+k+k+l+i+k+j+l+i+k+i+k+k+k+j+k+k+n+k+o+",
"p+q+p+r+s+s+p+t+s+u+q+t+p+v+r+w+w+t+q+q+w+v+u+w+t+t+v+t+v+v+w+t+v+w+q+v+p+w+w+t+v+v+t+w+q+t+w+v+w+x+",
"y+y+z+A+y+B+C+y+A+A+A+y+B+D+A+E+D+F+A+E+D+G+D+E+E+D+y+G+D+B+H+D+E+E+D+F+A+E+F+F+A+H+D+A+D+E+E+I+H+J+",
"K+L+L+L+L+L+L+L+L+L+L+M+N+L+L+N+L+N+O+L+N+L+L+N+P+N+L+N+N+O+L+Q+O+N+N+N+N+O+N+O+P+L+O+L+Q+L+N+N+N+O+",
"R+S+S+T+U+U+V+U+R+W+X+U+X+Y+Y+U+U+U+U+U+Y+Z+U+U+Y+Z+U+Z+Z+U+W+Y+U+U+U+Y+Y+X+U+U+Y+Y+W+U+Z+`+ @`+Z+`+",
".@+@.@@@#@#@+@+@$@.@.@%@%@.@&@.@.@&@%@%@.@*@*@%@.@.@.@.@%@%@.@%@%@%@%@.@.@*@&@.@.@%@.@.@&@=@=@-@;@>@",
",@'@)@!@'@)@,@)@!@~@~@~@!@!@~@~@~@{@~@!@~@!@!@]@]@]@,@~@]@!@!@'@~@,@~@~@]@~@]@,@]@]@]@^@/@/@(@]@^@~@",
"_@:@_@<@/@_@[@}@_@_@:@_@_@_@}@_@}@:@}@_@|@}@_@_@1@|@}@_@}@}@:@_@}@}@2@}@_@|@_@_@|@_@}@}@3@}@4@}@}@}@",
"5@6@5@7@5@6@7@7@8@8@9@7@8@7@7@7@7@6@7@0@0@8@7@8@a@7@8@8@7@7@8@7@7@8@7@6@7@7@9@7@7@8@0@8@6@9@7@7@8@7@",
"6@6@6@7@7@7@7@6@9@7@7@b@8@8@7@7@7@8@7@8@6@6@7@6@7@7@7@6@8@7@8@7@7@6@7@7@8@9@7@7@7@7@8@8@7@a@7@6@9@7@",
"8@7@7@7@7@6@7@6@7@6@8@6@7@6@6@6@7@7@8@7@7@7@7@7@8@7@7@8@8@8@7@7@7@7@8@7@7@9@7@7@6@7@8@7@8@7@7@7@7@6@",
"8@8@c@7@7@7@7@6@8@7@7@8@7@7@9@6@7@6@7@8@6@7@8@7@6@8@7@7@6@7@9@7@7@7@7@7@6@8@8@8@7@8@a@7@7@7@7@6@7@6@",
"7@8@9@7@8@7@0@7@7@7@7@7@7@7@6@8@8@6@7@6@9@7@7@7@8@8@6@7@7@7@7@7@8@9@6@7@7@a@9@7@7@6@6@6@7@7@7@7@8@8@",
"8@7@6@9@7@7@6@6@8@9@7@6@6@0@8@7@0@b@7@8@7@7@7@9@7@7@7@7@7@7@7@8@7@7@7@6@7@7@7@7@7@8@6@8@7@7@7@6@7@6@",
"7@7@7@8@7@8@7@6@7@8@7@7@7@7@0@a@7@8@8@7@8@7@9@7@7@9@6@6@7@9@8@6@6@8@7@6@7@7@7@8@6@6@7@8@6@7@7@7@7@7@",
"7@7@9@8@9@7@8@7@8@6@7@7@6@8@6@7@6@8@8@6@7@7@6@7@8@7@7@8@7@6@6@8@7@6@6@7@b@7@6@8@7@6@9@7@7@6@7@6@0@7@",
"7@8@7@8@7@7@7@6@7@9@6@7@9@7@7@7@7@8@9@b@6@8@7@7@7@7@7@7@7@8@6@6@7@7@7@7@7@6@7@7@7@7@7@7@7@7@7@8@7@7@",
"7@7@7@8@6@6@6@7@7@8@9@6@7@7@7@7@7@9@7@7@7@8@8@7@8@7@8@7@7@7@8@0@8@7@7@7@7@7@7@7@6@7@6@7@0@7@7@7@6@7@"};
